<?xml version="1.0" standalone="no"?>
<!DOCTYPE svg PUBLIC "-//W3C//DTD SVG 20010904//EN"
 "http://www.w3.org/TR/2001/REC-SVG-20010904/DTD/svg10.dtd">
<svg version="1.0" xmlns="http://www.w3.org/2000/svg"
 width="512.000000pt" height="512.000000pt" viewBox="0 0 512.000000 512.000000"
 preserveAspectRatio="xMidYMid meet">

<g transform="translate(0.000000,512.000000) scale(0.100000,-0.100000)"
fill="#000000" stroke="none">
<path d="M2337 5104 c-702 -109 -1246 -662 -1338 -1359 -16 -126 -6 -394 20
-510 31 -141 68 -251 126 -370 69 -143 125 -226 281 -415 363 -443 625 -848
825 -1278 l68 -147 -42 -7 c-23 -4 -89 -14 -147 -22 -359 -55 -645 -193 -733
-354 -173 -319 315 -610 1068 -638 601 -23 1133 145 1267 398 35 67 32 166 -7
237 -97 176 -404 314 -828 371 -83 11 -87 13 -81 34 13 44 206 416 285 551
171 293 349 549 599 861 212 264 302 423 365 640 51 175 60 246 59 459 0 166
-4 217 -22 301 -103 479 -402 875 -822 1088 -177 90 -317 135 -500 161 -128
18 -325 18 -443 -1z m410 -75 c345 -46 641 -193 878 -434 163 -166 280 -358
354 -580 53 -162 73 -288 73 -465 1 -176 -19 -301 -72 -461 -72 -218 -135
-325 -359 -604 -459 -574 -809 -1175 -1021 -1752 -19 -51 -37 -93 -41 -93 -3
0 -27 60 -54 133 -219 603 -549 1166 -1005 1712 -201 241 -287 383 -356 590
-57 171 -77 320 -71 520 6 186 19 263 73 425 70 211 192 406 354 570 110 111
178 165 307 242 160 96 380 174 558 197 100 12 291 13 382 0z m-306 -4316 c78
-208 88 -228 111 -231 14 -2 29 3 35 10 6 7 38 85 71 173 111 292 103 275 139
275 60 0 247 -32 361 -61 310 -79 522 -227 522 -364 0 -139 -225 -292 -540
-368 -194 -48 -317 -61 -565 -61 -248 -1 -373 10 -552 50 -351 78 -582 228
-583 380 -1 119 165 253 410 333 144 46 355 88 455 90 l51 1 85 -227z"/>
<path d="M2443 4690 c-173 -18 -359 -85 -513 -184 -93 -61 -245 -208 -309
-301 -317 -458 -268 -1058 119 -1455 181 -186 397 -297 647 -335 124 -19 222
-19 346 0 676 102 1117 785 932 1442 -31 110 -119 287 -184 373 -247 326 -641
500 -1038 460z m327 -97 c215 -43 412 -152 563 -312 398 -422 391 -1071 -17
-1485 -72 -73 -186 -160 -196 -149 -4 4 -14 153 -23 331 l-17 322 39 35 c21
19 52 61 69 93 149 280 12 662 -237 665 -172 1 -304 -179 -304 -413 0 -138 39
-244 122 -334 l47 -51 -22 -393 c-11 -216 -24 -395 -27 -399 -35 -34 -426 -24
-427 11 0 6 -11 198 -25 426 -22 381 -22 416 -7 425 46 29 108 96 128 140 23
48 24 61 24 267 l0 218 -27 6 c-47 12 -53 -10 -53 -198 l0 -168 -45 0 -45 0
-2 176 c-3 156 -5 178 -21 188 -12 8 -22 8 -35 0 -15 -10 -17 -32 -20 -188
l-2 -176 -45 0 -45 0 -2 176 c-3 156 -5 178 -21 188 -12 8 -22 8 -35 0 -15
-10 -17 -32 -20 -188 l-2 -176 -45 0 -45 0 -2 176 c-3 156 -5 178 -20 188 -13
8 -23 8 -35 0 -16 -10 -18 -34 -21 -225 -2 -211 -2 -214 23 -265 24 -49 70
-99 123 -134 l23 -15 -21 -350 c-11 -192 -20 -354 -20 -358 0 -16 -116 74
-193 150 -410 405 -418 1061 -20 1484 253 268 621 385 983 312z m215 -584 c63
-18 102 -55 143 -137 36 -75 37 -78 37 -191 0 -100 -3 -123 -23 -166 -53 -115
-116 -169 -197 -167 -77 1 -136 49 -181 147 -87 190 -18 457 132 510 48 17 41
17 89 4z m-615 -465 c0 -21 -48 -78 -84 -99 -109 -64 -258 -27 -311 76 l-16
29 206 0 c113 0 205 -3 205 -6z m-150 -256 c0 -24 9 -203 20 -398 11 -195 20
-358 20 -362 0 -9 -160 48 -174 62 -8 8 18 662 30 718 4 19 11 22 54 22 l50 0
0 -42z m780 -29 c0 -4 9 -154 20 -334 11 -180 18 -330 16 -333 -3 -2 -42 -19
-88 -38 -53 -21 -84 -29 -87 -22 -4 12 28 681 34 713 4 17 12 20 55 20 27 0
50 -3 50 -6z"/>
</g>
</svg>
